<svg xmlns="http://www.w3.org/2000/svg" width="18.197" height="18.193" viewBox="0 0 18.197 18.193"><path d="M303.1,416.432a4.664,4.664,0,1,0,4.664,4.664,4.657,4.657,0,0,0-4.664-4.664m0,7.7a3.033,3.033,0,1,1,3.033-3.033,3.038,3.038,0,0,1-3.033,3.033m5.943-7.888a1.088,1.088,0,1,1-1.088-1.088,1.085,1.085,0,0,1,1.088,1.088m3.089,1.1a5.039,5.039,0,0,0-5.282-5.282c-1.5-.085-6-.085-7.506,0a5.033,5.033,0,0,0-5.282,5.278c-.085,1.5-.085,6,0,7.506a5.039,5.039,0,0,0,5.282,5.282c1.5.085,6,.085,7.506,0a5.038,5.038,0,0,0,5.282-5.282c.085-1.5.085-6,0-7.5m-1.941,9.114a3.069,3.069,0,0,1-1.729,1.729c-1.2.475-4.039.365-5.363.365s-4.169.106-5.363-.365a3.07,3.07,0,0,1-1.729-1.729c-.475-1.2-.365-4.039-.365-5.363s-.106-4.169.365-5.363A3.071,3.071,0,0,1,297.738,414c1.2-.475,4.039-.365,5.363-.365s4.169-.105,5.363.365a3.07,3.07,0,0,1,1.729,1.729c.475,1.2.365,4.039.365,5.363s.11,4.169-.365,5.363" transform="translate(-294 -412)" fill="#ff5f9c"/></svg>