<svg xmlns="http://www.w3.org/2000/svg" xmlns:xlink="http://www.w3.org/1999/xlink" width="186.372" height="49.109" viewBox="0 0 186.372 49.109"><defs><clipPath id="a"><rect width="186.372" height="49.109" fill="none"/></clipPath><clipPath id="b"><rect width="180.698" height="46.936" fill="none"/></clipPath></defs><g transform="translate(0 0)"><g transform="translate(0 0)"><g clip-path="url(#a)"><path d="M43.557,23.332A19.688,19.688,0,1,1,23.87,3.645,19.687,19.687,0,0,1,43.557,23.332" transform="translate(2.013 1.754)" fill="#fff"/></g></g><g transform="translate(2.807 1.62)"><g clip-path="url(#b)"><path d="M41.688,16.913a.625.625,0,0,0-.7-.7H39.707V12.762h3.737c1.435,0,2.139.671,2.139,1.821v.478c0,.351-.033.7-.033.7h.064a6.062,6.062,0,0,1,5.269-3.385,4.54,4.54,0,0,1,4.757,3.352h.065a6.287,6.287,0,0,1,5.555-3.352c3.385,0,5.333,1.917,5.333,6.195v6.355a.638.638,0,0,0,.7.7h1.246v3.416H64.709c-1.532,0-2.17-.638-2.17-2.17V19.339c0-1.852-.353-3.256-2.237-3.256-2.012,0-3.449,1.692-3.894,3.734a7.09,7.09,0,0,0-.256,2.077v7.152H52.1V19.339c0-1.755-.256-3.256-2.2-3.256-2.044,0-3.417,1.692-3.929,3.767a8.386,8.386,0,0,0-.255,2.044v7.152H41.688ZM75.15,26.269a2.172,2.172,0,0,1-2.459-2.108c0-2.266,3.354-2.554,5.462-2.554h.7v.382c0,1.981-1.532,4.28-3.7,4.28m3.129-7.441c-2.65,0-9.675.416-9.675,5.524,0,3.259,2.65,5.078,5.557,5.078a5.305,5.305,0,0,0,4.918-2.874h.064a6.9,6.9,0,0,0-.033.7c0,.958.575,1.788,2.075,1.788h3.64V25.63H83.547a.64.64,0,0,1-.7-.7V18.861c0-3.64-1.6-6.482-7.026-6.482-1.692,0-5.97.32-5.97,3.354v1.724h3.767v-.862c0-.895,1.438-1.086,2.172-1.086,2.075,0,3,.862,3,3.192v.127h-.511m18.809,2.044c0,3.609-1.981,5.142-4.089,5.142-2.394,0-4.023-2.012-4.023-5.109,0-3.225,1.852-5.045,4.088-5.045,2.712,0,4.023,2.49,4.023,5.013m-4.823-8.494c-4.311,0-7.407,3.352-7.407,8.527,0,5.045,2.841,8.525,7.248,8.525a5.6,5.6,0,0,0,5.077-2.65h.064v.606c0,.958.542,1.661,2.012,1.661h3.736V25.63h-1.244a.639.639,0,0,1-.7-.7V8.548c0-1.5-.671-2.172-2.172-2.172H95.01V9.825h1.277a.625.625,0,0,1,.7.7V13.4c0,.542.033.958.033.958h-.064s-1.15-1.981-4.694-1.981m12.485,16.668h4.023V21.575a6.873,6.873,0,0,1,.32-2.172,4.465,4.465,0,0,1,4.374-3.32c2.043,0,2.555,1.341,2.555,3.32v7.473c0,1.532.637,2.17,2.17,2.17h3.863V25.63h-1.277a.638.638,0,0,1-.7-.7V18.573c0-4.311-2.077-6.195-5.684-6.195a6.26,6.26,0,0,0-5.748,3.385h-.064a4.509,4.509,0,0,0,.064-.7v-.478c0-1.15-.7-1.821-2.141-1.821h-3.736v3.449h1.278a.625.625,0,0,1,.7.7ZM126.333,18.8a3.9,3.9,0,0,1,3.991-3.289,3.16,3.16,0,0,1,3.065,3.289Zm3.991-6.419c-4.885,0-8.27,3.512-8.27,8.527A8.345,8.345,0,0,0,130.8,29.43a9.9,9.9,0,0,0,6.546-2.459l-1.692-2.81a7.4,7.4,0,0,1-4.565,1.821,4.684,4.684,0,0,1-4.887-4.374h11.24s.095-1.022.095-1.5c0-4.309-2.554-7.727-7.216-7.727m7.694,14.145a8.932,8.932,0,0,0,6.77,2.906c3.545,0,6.259-1.917,6.259-4.982,0-5.428-8.653-4.917-8.653-7.472,0-.957.99-1.468,2.426-1.468.893,0,2.043.384,2.043,1.15v.8h3.577V15.763c0-2.65-3.512-3.385-5.716-3.385-3.385,0-6.322,1.5-6.322,4.758,0,5.269,8.59,5.237,8.59,7.536,0,1.086-.958,1.6-2.2,1.6a7.286,7.286,0,0,1-4.853-2.4Zm13.347,0a8.929,8.929,0,0,0,6.77,2.906c3.545,0,6.257-1.917,6.257-4.982,0-5.428-8.653-4.917-8.653-7.472,0-.957.99-1.468,2.426-1.468.895,0,2.044.384,2.044,1.15v.8h3.576V15.763c0-2.65-3.512-3.385-5.715-3.385-3.385,0-6.322,1.5-6.322,4.758,0,5.269,8.589,5.237,8.589,7.536,0,1.086-.958,1.6-2.2,1.6a7.287,7.287,0,0,1-4.854-2.4ZM99.458,41.451a1.231,1.231,0,0,1-1.388-1.184c0-1.358,1.93-1.416,3-1.416h.364V39.1a2.239,2.239,0,0,1-1.972,2.352m1.637-3.638c-1.243,0-4.457.145-4.457,2.527a2.313,2.313,0,0,0,2.514,2.252,2.525,2.525,0,0,0,2.354-1.462h.028a3.317,3.317,0,0,0-.028.438c0,.527.262.847.92.847h1.33V41.2h-.6a.286.286,0,0,1-.321-.321V37.739c0-1.635-.643-2.893-3.038-2.893-.717,0-2.558.175-2.558,1.388v.73h1.329v-.424c0-.483.864-.57,1.215-.57,1.154,0,1.635.468,1.635,1.769v.074H101.1m8.436.892c0,1.884-1.037,2.659-2.133,2.659-1.228,0-2.09-1.038-2.09-2.646,0-1.68.964-2.646,2.12-2.646,1.418,0,2.1,1.315,2.1,2.632m-2.323-3.859c-1.958,0-3.348,1.52-3.348,3.872,0,2.295,1.256,3.874,3.26,3.874a2.618,2.618,0,0,0,2.426-1.345h.028s-.013.161-.013.381c0,.5.262.788.905.788h1.358V41.2h-.6a.286.286,0,0,1-.321-.321V33.034c0-.659-.279-.936-.935-.936h-1.4V33.31h.6a.287.287,0,0,1,.321.323v1.856a4.125,4.125,0,0,0,.03.5h-.03a2.473,2.473,0,0,0-2.28-1.139m7.3,7.57h1.637l2.252-5.89a.441.441,0,0,1,.481-.292h.147V35.021h-.686a.976.976,0,0,0-1.126.745l-1.579,4.253a9.35,9.35,0,0,0-.264.966h-.028a8.949,8.949,0,0,0-.264-.966l-1.594-4.253c-.218-.585-.467-.745-1.126-.745h-.73v1.213h.147a.417.417,0,0,1,.453.292Zm5.879-4.56a2.131,2.131,0,0,1,2.178-1.886,1.755,1.755,0,0,1,1.741,1.886Zm2.192-3.01a3.635,3.635,0,0,0-3.712,3.872,3.771,3.771,0,0,0,3.933,3.874,4.321,4.321,0,0,0,2.847-1.081l-.612-1.009a3.407,3.407,0,0,1-2.164.862,2.48,2.48,0,0,1-2.543-2.471h5.4s.043-.394.043-.584a3.144,3.144,0,0,0-3.186-3.463m4.345,7.571h1.418V39.391a4.491,4.491,0,0,1,.176-1.33,2.24,2.24,0,0,1,2.075-1.738,2.155,2.155,0,0,1,.424.043v-1.4a2.991,2.991,0,0,0-.379-.028,2.541,2.541,0,0,0-2.339,1.929h-.03a4.234,4.234,0,0,0,.03-.511v-.468c0-.6-.307-.862-.951-.862H126v1.212h.6a.287.287,0,0,1,.321.323Zm4.986-2.7a2.547,2.547,0,0,0,2.822,2.763,3.579,3.579,0,0,0,.5-.03V41.189a1.756,1.756,0,0,1-.336.028,1.46,1.46,0,0,1-1.563-1.667V36.161H135.1V35.022h-1.769V32.99h-1.389v2.032h-.992v1.139h.963Zm4.46-6.139h1.271V32.1h-1.271Zm-.03,7.907c0,.658.278.936.936.936h1.388V41.2h-.6a.286.286,0,0,1-.321-.321V35.957c0-.659-.277-.936-.935-.936h-1.389v1.212h.6a.287.287,0,0,1,.321.323Zm2.369-.19a3.806,3.806,0,0,0,2.954,1.3c1.549,0,2.718-.85,2.718-2.164,0-2.471-4.034-2.164-4.034-3.567,0-.584.539-.877,1.373-.877.453,0,1.111.19,1.111.63v.364H144.1v-.7c0-1.127-1.533-1.432-2.425-1.432-1.507,0-2.748.656-2.748,2.074,0,2.382,4.034,2.238,4.034,3.567,0,.643-.6.95-1.286.95a3.135,3.135,0,0,1-2.237-1.1Zm6.859-7.718h1.271V32.1h-1.271Zm-.03,7.907c0,.658.277.936.936.936h1.388V41.2h-.6a.286.286,0,0,1-.321-.321V35.957c0-.659-.276-.936-.935-.936h-1.389v1.212h.6a.287.287,0,0,1,.321.323Zm3.219.936h1.416V38.954a3.062,3.062,0,0,1,.132-1,2.4,2.4,0,0,1,2.339-1.81c1.184,0,1.388.818,1.388,1.855v3.48c0,.658.278.936.936.936h1.4V41.2h-.6a.287.287,0,0,1-.323-.321v-3.2c0-1.886-.79-2.835-2.542-2.835a3.011,3.011,0,0,0-2.778,1.695H150.1a3.219,3.219,0,0,0,.028-.424V35.84c0-.542-.307-.819-.936-.819h-1.358v1.212h.6a.288.288,0,0,1,.323.323Zm13.276-3.859c0,1.929-.952,2.543-1.975,2.543-1.329,0-2.133-1.052-2.133-2.588,0-1.507.73-2.441,2.016-2.441,1.139,0,2.092.556,2.092,2.486m-2.311-3.712c-2.061,0-3.244,1.578-3.244,3.7s1.256,3.786,3.3,3.786a2.363,2.363,0,0,0,2.207-1.126h.03a4.236,4.236,0,0,0-.03.468v.5c0,1.49-1.052,2.061-2.338,2.061a4.659,4.659,0,0,1-2.018-.5l-.481,1.139a5.8,5.8,0,0,0,2.527.615c1.871,0,3.727-.936,3.727-3.377V36.526a.285.285,0,0,1,.321-.292h.585V35.021h-1.373c-.585,0-.819.308-.819.745V36h-.03a2.457,2.457,0,0,0-2.367-1.154" transform="translate(16.305 1.449)" fill="#fff"/><path d="M25.262,37.25,24.616,35.5l-.4-1.093-.243-.661-.293-.8c-.313.6-.769.967-1.141.853s-.535-.624-.48-1.264c-.449-.067-.893-.151-1.33-.25-.3.83-.864,1.379-1.31,1.243s-.609-.889-.4-1.732a17.343,17.343,0,0,1-1.638-.659l-.238-.113a1.122,1.122,0,0,1-.092.079.678.678,0,0,1-.6.167c-.28-.086-.449-.421-.483-.87a17.19,17.19,0,0,1-2.095-1.431.554.554,0,0,1-.4.041c-.262-.08-.428-.379-.476-.787a17.364,17.364,0,0,1-1.578-1.64,3.159,3.159,0,0,1-.124.628c-.278.917-.889,1.544-1.363,1.4s-.631-1-.353-1.921a2.288,2.288,0,0,1,.9-1.327A17.173,17.173,0,0,1,7.75,19.133l-.024-.108a19.926,19.926,0,0,1-5.549.834l.022.119a22.9,22.9,0,0,0,3.576,8.494.63.63,0,0,1,.073.015c.253.077.415.36.47.745A22.855,22.855,0,0,0,7.95,31.182c.276-.342.6-.521.873-.437.437.132.6.874.409,1.708q.8.738,1.675,1.4A2.671,2.671,0,0,1,11,32.544c.278-.917.889-1.544,1.363-1.4s.631,1,.353,1.921a2.14,2.14,0,0,1-.994,1.372,23,23,0,0,0,2.117,1.3,2.96,2.96,0,0,1,.136-.933c.278-.917.889-1.545,1.361-1.4s.633,1,.354,1.921a2.786,2.786,0,0,1-.569,1.053q.884.411,1.81.747c.006-.021.01-.041.018-.064s.013-.043.021-.065a2.918,2.918,0,0,1,.456-.881c.278-.353.606-.538.884-.453a.81.81,0,0,1,.465.717,2.754,2.754,0,0,1-.111,1.2c-.009.03-.019.058-.028.086q.644.178,1.305.318a3.227,3.227,0,0,1,.127-.655c.28-.917.889-1.544,1.363-1.4s.633,1,.353,1.921a3.17,3.17,0,0,1-.163.428,23.32,23.32,0,0,0,3.155.216c.314,0,.625-.009.936-.021ZM5.341,22.7c-.278.917-.889,1.544-1.363,1.4s-.631-1-.353-1.921.889-1.544,1.363-1.4.631,1,.353,1.921m2.975,2.259c-.278.917-.889,1.544-1.363,1.4s-.631-1-.353-1.921.889-1.544,1.363-1.4.631,1,.353,1.921" transform="translate(-1.759 7.538)" fill="#ffdfc3"/><path d="M17.687,13.95l-.028,1.281L17.63,16.5l-.342-.074-5.177-1.111a27.184,27.184,0,0,1,4.24-1.647l.911.2ZM13.72,8.112,9.884,7.338,7.11,6.78A23.683,23.683,0,0,0,5.627,8.8l6.063,1.3A17.3,17.3,0,0,1,13.72,8.112m-3.653,4.2L4.319,11.08c-.135.27-.267.544-.391.819-.077.17-.153.342-.225.514q-.211.5-.4,1.006l5.568,1.2a17.259,17.259,0,0,1,1.192-2.3m-1.287,4.84q-.451.28-.893.569c.028-.129.058-.256.087-.384s.056-.227.086-.341L6.065,16.57l-1.216-.261-1.933-.415-.347-.074c-.079.318-.153.641-.218.966-.073.357-.138.717-.193,1.081-.021.135-.039.273-.058.409l2.077.446,1.21.261,2.512.539.652.141,2.2.471,1.755.378.8.17c.647-.39,1.307-.757,1.973-1.095.505-.256,1.046-.5,1.558-.705L9.655,17.342ZM6.3,21.737l-2.2-.473-1.065-.23L1.9,20.792c0,.193-.007.387-.007.581,0,.673.031,1.338.087,1.994l.243.053,1.333.286,2.321.5.914.2L8,24.66c.132-.123.264-.246.4-.367q.975-.867,2.034-1.668l-2.718-.584Z" transform="translate(-1.895 1.644)" fill="#ffdfc3"/><path d="M3.552,23.534c-.474-.144-.631-1-.353-1.921s.889-1.544,1.361-1.4.633,1,.354,1.921-.889,1.544-1.363,1.4m2.975,2.259c.474.144,1.083-.483,1.363-1.4s.12-1.776-.354-1.92-1.083.481-1.361,1.4-.121,1.778.353,1.923m6.513,2.656a.565.565,0,0,0,.4-.04q-.449-.36-.874-.747c.049.407.213.707.476.787m-3.891-2.32c-.28.917-.121,1.778.353,1.921s1.083-.483,1.363-1.4a3.225,3.225,0,0,0,.124-.628q-.5-.589-.941-1.221a2.287,2.287,0,0,0-.9,1.327m6.383,3.711c.036.447.2.784.483.868a.672.672,0,0,0,.6-.167l0-.12q-.556-.271-1.089-.581m1.089.581,0,.12c.031-.024.061-.049.092-.077l-.089-.043m6.537,1.709c-.516-.03-1.025-.083-1.529-.157-.053.64.124,1.157.481,1.265s.827-.25,1.141-.855Zm-4.571-.9c-.2.844-.037,1.6.4,1.733S20,32.554,20.3,31.723a17.359,17.359,0,0,1-1.714-.489M5.422,27.925a.41.41,0,0,0-.074-.015c.176.256.357.511.544.76-.055-.387-.218-.668-.47-.745M12.288,32.5c.28-.917.121-1.776-.353-1.921s-1.083.483-1.363,1.4a2.7,2.7,0,0,0-.093,1.307c.268.2.539.4.816.588a2.146,2.146,0,0,0,.992-1.373M8.4,30.182c-.276-.083-.6.095-.874.438q.618.66,1.283,1.271c.2-.834.027-1.576-.409-1.709m6.866,4.579c.278-.917.121-1.778-.353-1.921s-1.084.483-1.363,1.4a3.057,3.057,0,0,0-.136.935q.631.34,1.283.641a2.784,2.784,0,0,0,.569-1.055m5.743.609c-.474-.144-1.084.483-1.363,1.4a3.208,3.208,0,0,0-.127.655c.553.117,1.112.216,1.68.293a3.448,3.448,0,0,0,.163-.427c.278-.917.12-1.778-.353-1.921m-2.656.444a.812.812,0,0,0-.465-.715c-.28-.084-.606.1-.884.452a2.894,2.894,0,0,0-.456.883l-.022.065-.018.064c.169.061.339.12.51.178q.591.2,1.2.364c.01-.028.019-.056.028-.084a2.787,2.787,0,0,0,.113-1.206" transform="translate(-1.333 8.099)" fill="#91c492"/><path d="M17.7,12.657l-.013.635L17.26,13.2l-.911-.2q.451-.131.905-.243c.148-.037.3-.071.444-.105m-12.851,3,1.216.261,1.992.428a17.115,17.115,0,0,1,.816-2.383l-5.57-1.2c-.07.19-.136.379-.2.57-.019.056-.037.116-.056.173-.157.478-.3.964-.428,1.456-.018.067-.033.133-.049.2l.347.074Zm7.262-1c-.884.428-1.751.9-2.6,1.4q-.371.218-.735.444l.874.188,7.18,1.542q.244-.1.48-.187l.271-.1.046-2.1-.342-.074Zm-.421-5.205-6.063-1.3a23.352,23.352,0,0,0-1.308,2.277l5.748,1.234a17.355,17.355,0,0,1,1.624-2.209M6.79,23.742l-.914-.2-2.32-.5-1.335-.287-.243-.052a22.923,22.923,0,0,0,.332,2.385,19.937,19.937,0,0,0,5.551-.834c-.007-.034-.016-.07-.022-.1.053-.052.108-.1.163-.154Zm3.96-4.265L8.551,19,7.9,18.865l-2.512-.539-1.212-.261L2.1,17.62a23.066,23.066,0,0,0-.2,2.515l1.13.243,1.067.228,2.2.474,1.418.3,2.717.584q.436-.329.883-.644.351-.249.71-.487c.418-.28.844-.551,1.274-.81l-.8-.172Z" transform="translate(-1.893 2.301)" fill="#9d99b7"/><path d="M34.146,15.66c-.093-.3-.193-.6-.3-.9l1.705-3.373L37.161,8.2q.236.364.458.741c.056.093.113.187.167.283.07.12.136.243.2.366l-1.032,2.041-.342.677-2.2,4.348q-.122-.5-.271-1m5.865,11.156-1.8,3.564-2.293,4.531c.21-.265.412-.538.61-.813A22.971,22.971,0,0,0,37.9,31.948q.176-.311.341-.63.331-.635.625-1.295c.064-.144.126-.289.187-.434a22.74,22.74,0,0,0,.961-2.776Zm.778-7.6h0l-6.71,13.27-3.834,7.581c.23-.148.458-.3.681-.456s.446-.316.665-.478c.2-.148.394-.3.587-.455q.262-.211.517-.427l3.431-6.783,4.657-9.209q.027-.389.04-.782c.009-.262.015-.524.015-.788,0-.495-.018-.987-.049-1.472M24.343,36.581a17.141,17.141,0,0,1-1.868.665l-.215.422L20.8,40.559l-1.567,3.1c.511-.031,1.018-.077,1.52-.141l.09-.012.51-1.009,2.838-5.614ZM34.891,20.686V20.7c-.23-.1-.459-.193-.692-.278-.043-.016-.086-.034-.129-.049L31.69,25.082a9.146,9.146,0,0,1,.935.634l.2.154,6.619-13.089q-.122-.336-.256-.664c-.068-.17-.138-.339-.21-.507s-.145-.335-.221-.5l-.41.809L34.8,18.929c.058.578.089,1.164.089,1.757M40.5,16.753h0c-.04-.24-.087-.478-.136-.717-.1-.468-.206-.933-.33-1.391L30.064,34.36l-3.945,7.8.141-.053q.784-.309,1.539-.673l.295-.147,3.966-7.842ZM28.794,33.84a17.283,17.283,0,0,1-2.4,1.705l-.267.529-3.616,7.15c.354-.074.707-.156,1.055-.244.236-.061.468-.126.7-.194l3.819-7.552Zm0-8.615a13.121,13.121,0,0,1,1.418-.495,1.03,1.03,0,0,1,.138-.027l2.386-4.721a9.538,9.538,0,0,0-.941-.167c-.16-.021-.32-.039-.481-.05L28.7,24.927l-.216.425c.077-.033.153-.065.23-.1l.077-.031m-8.45,13.2.39-.772c-.243.044-.486.083-.732.117-.3.04-.6.074-.91.1l-.653,1.292L17.659,40.7l.646,1.754,1.941-3.837ZM16.628,37.9l.093.253.293.8.516-1.019c-.233,0-.465-.007-.7-.018l-.206-.012" transform="translate(5.197 2.329)" fill="#262c40"/><path d="M18.314,38.711l-.779,1.542-.4-1.093-.244-.661.516-1.021h.119c.486,0,.969-.021,1.444-.061Zm4.035-1.917a17.782,17.782,0,0,1-1.739.41l-.391.772-.1.194-1.941,3.837.452,1.225c.157-.006.316-.013.473-.024l1.569-3.1,1.462-2.892Zm9.217-12.163,2.379-4.706a11.53,11.53,0,0,0-1.333-.394l-2.386,4.721a2.238,2.238,0,0,1,1.341.379M26.275,35.1a17.444,17.444,0,0,1-2.056,1.035l-.154.3-2.838,5.613-.511,1.009c.258-.034.513-.073.766-.114.1-.016.193-.031.287-.049.209-.037.416-.077.624-.12l3.614-7.149Zm8.4-16.618,3.543-7.008.409-.809q-.356-.775-.764-1.518l-1.032,2.043-.342.675-2.2,4.348a16.9,16.9,0,0,1,.342,1.889c.016.127.031.253.044.381m5.231-4.284c-.172-.631-.367-1.253-.591-1.862L32.7,25.419c.2.154.381.295.532.4a2.951,2.951,0,0,0,.508.283A17.289,17.289,0,0,1,28.67,33.39l-.705,1.392-3.819,7.553c.313-.092.624-.188.93-.292s.615-.218.918-.335l3.945-7.8Zm.755,4.57a23.175,23.175,0,0,0-.289-2.462L31.935,32.995l-3.967,7.842q.353-.176.7-.361.489-.267.964-.556c.164-.1.327-.2.489-.305l3.834-7.58ZM32.57,37.8q.727-.615,1.4-1.287.587-.587,1.129-1.213c.237-.273.468-.553.692-.837l2.292-4.533,1.8-3.564a22.9,22.9,0,0,0,.772-4.558L36,31.017Z" transform="translate(5.322 2.781)" fill="#f49d81"/><path d="M31.766,18.5A8.972,8.972,0,0,0,30.2,18.8l-.142.041q-.193.056-.387.116a1.712,1.712,0,0,1,.2.249,1.783,1.783,0,0,1,.074,1.875l-.019.031a1.783,1.783,0,0,1-3.086-1.788c.012-.021.025-.04.039-.059l-.031-.142c-.151-.68-.313-1.351-.52-2a10.875,10.875,0,0,0-.683-1.68c-.027-.053-.055-.105-.083-.157a7.97,7.97,0,0,0-.776-1.175q-.2-.244-.419-.48l-.071-.076c-2.086-2.142-5.145-2.773-8.053-2.678q-.691.022-1.378.1a1.792,1.792,0,0,1-.116,1.512,1.786,1.786,0,0,1-2.2.782l-.028,1.265-.046,2.1c.176-.062.344-.117.5-.164a5.917,5.917,0,0,1,1.858-.353c.119,0,.24,0,.372.01a2.536,2.536,0,0,1,1.049.259c.138.067.289.15.462.253a4.321,4.321,0,0,1,1.533,1.93,11.726,11.726,0,0,1,.755,2.8,1.757,1.757,0,0,1,.7-.584,1.779,1.779,0,0,1,1.219-.107,1.8,1.8,0,0,1,.356.138l.059.03.028.018a1.784,1.784,0,0,1,.646,2.413,1.76,1.76,0,0,1-.674.673,1.8,1.8,0,0,1-.932.233,1.776,1.776,0,0,1-.646-.144,1.536,1.536,0,0,1-.179-.087l-.015-.009c.031.095.065.19.1.283a6.311,6.311,0,0,0,.308.705c.076.148.157.293.247.437a2.606,2.606,0,0,0,.238.317,2.546,2.546,0,0,0,.662.545,2.859,2.859,0,0,0,.484.221,3.945,3.945,0,0,0,1.1.216c.105.007.212.01.32.01a7.457,7.457,0,0,0,1.283-.111,1.782,1.782,0,0,1,1.813-2.98,1.86,1.86,0,0,1,.284.127,1.791,1.791,0,0,1,.867,1.918c.12-.055.234-.11.342-.163q.418-.209.834-.421c.668-.341,1.333-.677,2.018-.973l.221-.438,2.6-5.154a8.858,8.858,0,0,0-1.533.021M19.823,15.348a1.784,1.784,0,1,1-.674-2.431,1.783,1.783,0,0,1,.674,2.431m5.065,2.866a1.788,1.788,0,0,1-2.431.674c-.022-.012-.041-.027-.062-.04a1.755,1.755,0,0,1-.428-.37,1.782,1.782,0,0,1,1.425-2.924,1.759,1.759,0,0,1,.6.127,1.813,1.813,0,0,1,.218.1,1.771,1.771,0,0,1,.674.677,1.887,1.887,0,0,1,.119.255,1.779,1.779,0,0,1-.119,1.5" transform="translate(3.203 3.61)" fill="#ffc400"/><path d="M42.37,11.615c-.209-.321-.424-.635-.647-.945a1.775,1.775,0,0,1-2.256.653c-.041-.019-.083-.039-.123-.061a1.782,1.782,0,0,1,.194-3.2L39.5,8.03q-.193-.2-.391-.391c-.188-.184-.379-.366-.573-.544l-.1-.084c-.1-.089-.2-.178-.3-.264-.037-.033-.074-.065-.113-.1-.185-.16-.375-.317-.564-.471l-.138-.111c-.11-.086-.221-.172-.332-.256-.064-.049-.127-.1-.191-.147-.114-.086-.228-.167-.344-.25L36.4,5.368c-.262-.187-.53-.369-.8-.545-.209-.135-.418-.27-.63-.4-.317-.191-.637-.376-.964-.554s-.656-.347-.992-.508Q32.262,3,31.476,2.69c-.09-.037-.182-.07-.274-.105a1.783,1.783,0,0,1-1.989,2.946,1.939,1.939,0,0,1-.228-.157A1.782,1.782,0,0,1,30.091,2.2c-.43-.138-.862-.265-1.3-.378q-.827-.213-1.678-.366L26.785,1.4a1.778,1.778,0,0,1-.206.593,1.806,1.806,0,0,1-.455.527A1.783,1.783,0,0,1,23.243,1.1l-.206,0a23.053,23.053,0,0,0-5.211.593,1.534,1.534,0,0,1,.148.074,1.782,1.782,0,1,1-2.431.674c.024-.041.049-.08.076-.119a22.636,22.636,0,0,0-3.127,1.332q-.711.367-1.389.778c-.126.077-.249.154-.373.233A1.782,1.782,0,0,1,8.286,7.063,1.72,1.72,0,0,1,7.9,6.769q-.173.149-.342.3c-.136.124-.271.25-.4.376q-.4.382-.781.782c-.2.207-.393.421-.584.637a1.782,1.782,0,0,1,2.219,1.21l3.835.772c.433-.36.884-.7,1.351-1.018a1.784,1.784,0,0,1,1.911-3.007c.062.036.12.074.176.114a1.862,1.862,0,0,1,.222.194,1.79,1.79,0,0,1,.5,1.151,17.082,17.082,0,0,1,4.577-1.268,1.784,1.784,0,0,1,2.452-2.391,1.854,1.854,0,0,1,.4.307,1.786,1.786,0,0,1,.36,1.96,17.329,17.329,0,0,1,3,.424,1.8,1.8,0,0,1,.775-.021,1.769,1.769,0,0,1,.539.2,1.8,1.8,0,0,1,.415.324,17.143,17.143,0,0,1,4.1,2.077q.538.369,1.044.778c.12.095.237.193.354.29.241.206.478.419.71.637q.5.48.969,1l.039.043c.2.225.394.453.582.689a1.788,1.788,0,0,1,1.915-.1,1.811,1.811,0,0,1,.89,1.338,1.819,1.819,0,0,1-.006.483,1.767,1.767,0,0,1-.5.992,1.8,1.8,0,0,1-.366.281l.111.224a17.427,17.427,0,0,1,.7,1.629l0,.013,1.707-3.374,1.609-3.18-.007-.013M36.849,7.406a1.749,1.749,0,0,1-.139.316c-.031.055-.064.105-.1.156A1.784,1.784,0,0,1,33.6,5.965a1.791,1.791,0,0,1,2.431-.674c.053.031.107.065.156.1a1.922,1.922,0,0,1,.159.127,1.791,1.791,0,0,1,.5,1.887" transform="translate(-0.02 -1.094)" fill="#ffc400"/><path d="M8.189,10.076,5.416,9.518c.013-.016.025-.034.039-.049.169-.2.342-.4.517-.6a1.78,1.78,0,0,1,2.218,1.21M10.9,6.389a1.779,1.779,0,0,0,.013-1.732q-.284.178-.561.366c-.307.206-.607.421-.9.641q-.7.527-1.364,1.1a1.817,1.817,0,0,0,.385.295A1.784,1.784,0,0,0,10.9,6.389m4.789.742a1.633,1.633,0,0,0-.222-.193A1.783,1.783,0,1,0,13.377,9.83a17.249,17.249,0,0,1,2.1-1.222c.182-.089.367-.173.553-.256l.156-.07a1.783,1.783,0,0,0-.5-1.151m2.468-5.373a1.512,1.512,0,0,0-.147-.074c-.751.173-1.487.385-2.209.63-.025.039-.052.077-.076.119A1.783,1.783,0,0,0,18.684,4.4a1.762,1.762,0,0,0,.142-.212,1.783,1.783,0,0,0-.674-2.431m.123,13.916c-.05,0-.1.012-.15.016q-.584.069-1.166.169-.478.087-.954.193l-.015.635-.028,1.281a1.787,1.787,0,0,0,2.2-.784,1.8,1.8,0,0,0,.114-1.511M23.616,4.93a1.8,1.8,0,0,0-.4-.305,1.782,1.782,0,0,0-2.452,2.389,17.493,17.493,0,0,1,2.277-.15q.469,0,.93.025a1.785,1.785,0,0,0-.358-1.96M26.965,1.4c-.271-.044-.544-.086-.818-.12.274.034.547.076.818.12m-.818-.12c-.074-.01-.15-.018-.225-.027a23.189,23.189,0,0,0-2.5-.156,1.782,1.782,0,0,0,3.542.3c-.271-.044-.544-.086-.818-.12M23.226,20.052a1.784,1.784,0,1,0-2.431.674,1.784,1.784,0,0,0,2.431-.674M28.283,7.49a1.761,1.761,0,0,0-.538-.2,1.78,1.78,0,0,0-.776.022q.429.1.849.221c.3.084.591.179.881.28a1.779,1.779,0,0,0-.416-.326M30.6,2.3l-.329-.107L30.6,2.3m.782.283q-.387-.147-.782-.283l-.329-.107a1.782,1.782,0,0,0-1.107,3.179,1.746,1.746,0,0,0,.23.157,1.783,1.783,0,0,0,1.988-2.946M28.409,21.418a1.789,1.789,0,0,0-.119-.253,1.771,1.771,0,0,0-.674-.677,1.683,1.683,0,0,0-.216-.1,1.74,1.74,0,0,0-.606-.127,1.782,1.782,0,0,0-1,3.294l.062.04a1.8,1.8,0,0,0,.892.23,1.782,1.782,0,0,0,1.658-2.4m-3.017,4.754a1.771,1.771,0,0,0-.613-.6c-.01,0-.018-.012-.027-.016s-.04-.019-.061-.03a1.718,1.718,0,0,0-.356-.139,1.784,1.784,0,0,0-1.918.69,20.776,20.776,0,0,0,.507,2.4c.018.058.037.116.055.173l.016.01a1.646,1.646,0,0,0,.178.087,1.745,1.745,0,0,0,.647.142,1.794,1.794,0,0,0,.93-.231,1.784,1.784,0,0,0,.641-2.484m4.425,2.247a1.806,1.806,0,0,0-.284-.129,1.784,1.784,0,0,0-1.658.25,1.779,1.779,0,0,0-.72,1.422,1.785,1.785,0,0,0,.564,1.308c.114-.019.227-.041.339-.064a12.227,12.227,0,0,0,1.8-.529c.3-.111.575-.227.825-.342a1.788,1.788,0,0,0-.867-1.917m3.465-4.511a1.875,1.875,0,0,0-.2-.249l-.36.117c-.373.126-.744.261-1.111.407-.393.156-.781.323-1.166.5-.052-.238-.1-.477-.154-.714-.012.021-.027.039-.039.059a1.783,1.783,0,0,0,.336,2.181,1.748,1.748,0,0,0,.339.25,1.786,1.786,0,0,0,2.41-.641l.019-.033a1.78,1.78,0,0,0-.074-1.875M39.746,8.094h0l-.03-.031.03.031M41.67,10.35h0q-.451-.6-.939-1.173.487.571.939,1.173m-.939-1.173c-.037-.044-.073-.087-.11-.13.037.043.073.086.11.13m-.11-.13q-.424-.489-.875-.953.451.464.875.953M41.9,10.669h0c-.077-.107-.154-.213-.233-.318.079.105.156.212.233.318m-3.286,2.689a1.854,1.854,0,0,0-.2-.135,1.773,1.773,0,0,0-1.157-.209,1.794,1.794,0,0,0-.758.311c.124.154.246.31.364.47s.246.336.364.508q.267.384.514.785.369.6.687,1.228a1.764,1.764,0,0,0,.366-.28,1.741,1.741,0,0,0,.5-.994,1.749,1.749,0,0,0,.007-.481,1.787,1.787,0,0,0-.687-1.2M36.791,7.877a1.811,1.811,0,0,0,.1-.154,1.936,1.936,0,0,0,.141-.317,1.791,1.791,0,0,0-.5-1.887,1.922,1.922,0,0,0-.159-.127,1.559,1.559,0,0,0-.157-.1,1.784,1.784,0,1,0-1.31,3.281,1.806,1.806,0,0,0,.653.039,1.781,1.781,0,0,0,1.232-.735m4.88,2.474q-.451-.6-.939-1.173c-.037-.044-.073-.087-.11-.13q-.424-.489-.875-.953l-.03-.031a1.783,1.783,0,0,0-.193,3.2,1.341,1.341,0,0,0,.121.062,1.778,1.778,0,0,0,2.258-.655c-.077-.107-.154-.213-.233-.318" transform="translate(-0.2 -1.093)" fill="#db0062"/></g></g></g></svg>