<svg xmlns="http://www.w3.org/2000/svg" xmlns:xlink="http://www.w3.org/1999/xlink" id="logo_t3works" width="180.02" height="43.335" viewBox="0 0 180.02 43.335"><defs><clipPath id="clip-path"><rect id="Rectangle_78" data-name="Rectangle 78" width="180.02" height="43.335" fill="none"></rect></clipPath></defs><g id="Group_81" data-name="Group 81" clip-path="url(#clip-path)"><path id="Path_581" data-name="Path 581" d="M405.138,25.584a5.456,5.456,0,0,1,0,10.911,5.456,5.456,0,0,1,0-10.911m0,9.69a4.279,4.279,0,0,0,0-8.545A4.111,4.111,0,0,0,401.171,31a4.065,4.065,0,0,0,3.968,4.273m-1.831-6.028h-.458v-.916H405.6a1.643,1.643,0,0,1,1.756,1.755,1.568,1.568,0,0,1-.992,1.45.521.521,0,0,1,.305.305l.458.916a.305.305,0,0,0,.305.152h.152v.915h-.687c-.382,0-.61-.076-.763-.381l-.763-1.373a.457.457,0,0,0-.458-.229h-.382v1.983h-1.3V29.247h.076Zm1.984,1.6a.843.843,0,0,0,0-1.678H404.6v1.6h.687Z" transform="translate(-230.46 -14.75)" fill="#323333"></path><path id="Path_582" data-name="Path 582" d="M130.922,29.044h-3.2a.64.64,0,0,0-.687.686v1.3H123.6V27.67c0-1.373.458-1.907,1.908-1.907h14.728c1.45,0,1.908.534,1.908,1.907v3.357h-3.434v-1.3a.641.641,0,0,0-.687-.686h-3.281V46.9h-3.892V29.044Z" transform="translate(-71.247 -14.853)" fill="#323333"></path><path id="Path_583" data-name="Path 583" d="M159.529,41.4a7.587,7.587,0,0,0,5.189,2.289c2.06,0,3.587-1.3,3.587-3.129,0-1.907-1.756-3.128-3.968-3.128h-1.45l-.763-1.907,3.587-4.807a6.886,6.886,0,0,1,1.374-1.6v-.076s-.687.076-1.908.076H162.5a.641.641,0,0,0-.687.687v1.3h-3.51V27.823c0-1.373.382-2.06,1.831-2.06h11.523V28.2l-4.884,6.1a6.157,6.157,0,0,1,5.418,6.18c0,3.51-2.747,6.866-7.555,6.866a10,10,0,0,1-7.173-2.975Z" transform="translate(-90.771 -14.853)" fill="#323333"></path><path id="Path_584" data-name="Path 584" d="M196.886,43.555c-.152-.458-.381-.534-.839-.534h-.382v-3.2h2.595a1.844,1.844,0,0,1,2.137,1.526l2.213,8.392a10.992,10.992,0,0,1,.305,1.6h.077s.152-.839.381-1.6l2.823-9.918h3.358l2.823,9.918a10.991,10.991,0,0,1,.305,1.6h.077a9.375,9.375,0,0,1,.305-1.6l2.213-8.392a1.844,1.844,0,0,1,2.137-1.526h2.595v3.2h-.382c-.458,0-.687.076-.839.534L215.126,55h-4.273l-2.671-8.621c-.229-.839-.381-1.6-.381-1.6h-.077s-.152.839-.381,1.6L204.824,55h-4.274Z" transform="translate(-112.79 -22.956)" fill="#323333"></path><path id="Path_585" data-name="Path 585" d="M263.438,38.917c4.655,0,8.318,3.281,8.318,7.934s-3.663,7.934-8.318,7.934c-4.579,0-8.318-3.281-8.318-7.934a7.973,7.973,0,0,1,8.318-7.934m0,12.741a4.736,4.736,0,1,0-4.5-4.73,4.518,4.518,0,0,0,4.5,4.73" transform="translate(-147.062 -22.437)" fill="#323333"></path><path id="Path_586" data-name="Path 586" d="M299.909,43.4a.607.607,0,0,0-.687-.686H298v-3.2h3.434c1.374,0,2.06.534,2.06,1.831v.916a5.163,5.163,0,0,1-.076.916h.076a5.278,5.278,0,0,1,4.808-3.891,4.224,4.224,0,0,1,.687.076v3.738a5.166,5.166,0,0,0-.916-.076,4.25,4.25,0,0,0-4.121,3.2,8.577,8.577,0,0,0-.305,2.441v6.027h-3.739Z" transform="translate(-171.781 -22.645)" fill="#323333"></path><path id="Path_587" data-name="Path 587" d="M327.938,29.656a.607.607,0,0,0-.687-.687h-1.144v-3.2h3.587c1.374,0,2.06.305,2.06,1.755v9.613H332.9a1.828,1.828,0,0,0,1.45-.534l3.129-4.807h4.2l-3.815,5.722a5.562,5.562,0,0,1-1.145,1.221v.076a2.669,2.669,0,0,1,1.068,1.221l1.756,3.281c.229.458.534.534,1.221.534h.992V46.9h-2.823a2.152,2.152,0,0,1-2.366-1.3l-2.518-4.73a1.412,1.412,0,0,0-1.374-.534h-.839V46.9h-3.816V29.656h-.077Z" transform="translate(-187.982 -14.855)" fill="#323333"></path><path id="Path_588" data-name="Path 588" d="M367.215,49.674a6.715,6.715,0,0,0,4.5,2.213c1.145,0,2.061-.458,2.061-1.526,0-2.136-8.013-2.136-8.013-7.019,0-3.051,2.747-4.425,5.876-4.425,2.06,0,5.341.686,5.341,3.128v1.6h-3.358v-.763c0-.686-1.068-1.068-1.908-1.068-1.374,0-2.289.458-2.289,1.373,0,2.365,8.089,1.908,8.089,6.943,0,2.823-2.518,4.654-5.8,4.654a8.372,8.372,0,0,1-6.334-2.67Z" transform="translate(-210.623 -22.437)" fill="#323333"></path><path id="Path_589" data-name="Path 589" d="M40.14,0H3.128A3.094,3.094,0,0,0,0,3.128V40.207a3.142,3.142,0,0,0,3.129,3.128H40.216a3.142,3.142,0,0,0,3.129-3.128V3.128A3.209,3.209,0,0,0,40.14,0M3.816,5.417a1.6,1.6,0,1,1,1.6-1.6,1.665,1.665,0,0,1-1.6,1.6M34.569,25.024c-1.6.686-5.876,1.526-6.945,2.67-1.068,1.068-1.984,5.341-2.671,6.943a8.713,8.713,0,0,1-3.358.534,10.5,10.5,0,0,1-3.358-.534c-.687-1.6-1.526-5.875-2.671-6.943-1.068-1.068-5.342-1.984-6.945-2.67a8.708,8.708,0,0,1-.534-3.357,10.506,10.506,0,0,1,.534-3.357c1.6-.687,5.876-1.526,6.945-2.671,1.068-1.068,1.984-5.34,2.671-6.943A8.715,8.715,0,0,1,21.6,8.163a10.518,10.518,0,0,1,3.358.534c.687,1.6,1.526,5.875,2.671,6.943,1.068,1.068,5.342,1.984,6.945,2.671a8.705,8.705,0,0,1,.534,3.357,7.891,7.891,0,0,1-.534,3.357m4.884,16.1a1.6,1.6,0,1,1,1.6-1.6,1.564,1.564,0,0,1-1.6,1.6" transform="translate(0 0)" fill="#8179de"></path></g></svg>