<svg xmlns="http://www.w3.org/2000/svg" width="59" height="34" viewBox="0 0 59 34"><g transform="translate(-1488 -3361)"><path d="M4,0H55a4,4,0,0,1,4,4V30a4,4,0,0,1-4,4H4a4,4,0,0,1-4-4V4A4,4,0,0,1,4,0Z" transform="translate(1488 3361)" fill="#fff"/><g transform="translate(1503 3367)"><path d="M37.685,134.839v.06h.055a.059.059,0,0,0,.03-.008.026.026,0,0,0,.011-.023.025.025,0,0,0-.011-.022.054.054,0,0,0-.03-.008Zm.056-.042a.1.1,0,0,1,.066.019.063.063,0,0,1,.023.052.06.06,0,0,1-.018.046.09.09,0,0,1-.053.022l.073.084h-.057l-.068-.084h-.022v.084h-.048V134.8Zm-.014.3a.178.178,0,0,0,.073-.015.192.192,0,0,0,.059-.04.187.187,0,0,0,.04-.06.188.188,0,0,0-.1-.246.188.188,0,0,0-.073-.014.2.2,0,0,0-.074.014.19.19,0,0,0-.06.04.191.191,0,0,0-.039.206.176.176,0,0,0,.039.06.191.191,0,0,0,.06.04.186.186,0,0,0,.074.015m0-.429a.247.247,0,0,1,.174.071.239.239,0,0,1,.052.077.239.239,0,0,1,0,.187.251.251,0,0,1-.052.077.265.265,0,0,1-.078.052.242.242,0,0,1-.1.019.246.246,0,0,1-.1-.019.254.254,0,0,1-.078-.052A.251.251,0,0,1,37.5,135a.239.239,0,0,1,0-.187.239.239,0,0,1,.052-.077.234.234,0,0,1,.078-.052.246.246,0,0,1,.1-.019M15.1,133.808a.734.734,0,1,1,.736.776.728.728,0,0,1-.736-.776m1.963,0V132.6h-.527v.294a.919.919,0,0,0-.766-.355,1.275,1.275,0,0,0,0,2.547.919.919,0,0,0,.766-.355v.294h.527Zm17.816,0a.734.734,0,1,1,.736.776.728.728,0,0,1-.736-.776m1.964,0v-2.186h-.528v1.268a.919.919,0,0,0-.766-.355,1.275,1.275,0,0,0,0,2.547.919.919,0,0,0,.766-.355v.294h.528Zm-13.235-.8a.6.6,0,0,1,.614.588H22.967a.624.624,0,0,1,.645-.588m.01-.472a1.274,1.274,0,0,0,.035,2.547,1.474,1.474,0,0,0,.994-.34l-.258-.391a1.159,1.159,0,0,1-.706.254.674.674,0,0,1-.725-.594h1.8c.005-.066.01-.132.01-.2a1.163,1.163,0,0,0-1.151-1.273m6.366,1.273a.734.734,0,1,1,.736.776.728.728,0,0,1-.736-.776m1.963,0V132.6h-.527v.294a.92.92,0,0,0-.766-.355,1.275,1.275,0,0,0,0,2.547.92.92,0,0,0,.766-.355v.294h.527Zm-4.94,0a1.225,1.225,0,0,0,1.294,1.273,1.269,1.269,0,0,0,.872-.289l-.253-.426a1.065,1.065,0,0,1-.635.218.778.778,0,0,1,0-1.553,1.065,1.065,0,0,1,.635.218l.253-.426a1.27,1.27,0,0,0-.872-.289,1.225,1.225,0,0,0-1.294,1.273m6.8-1.273a.716.716,0,0,0-.639.355V132.6h-.522v2.425h.528v-1.359c0-.4.172-.624.517-.624a.855.855,0,0,1,.33.061l.163-.5a1.124,1.124,0,0,0-.376-.066m-14.133.254a1.813,1.813,0,0,0-.989-.254c-.614,0-1.01.294-1.01.776,0,.4.294.639.837.715l.249.035c.289.041.426.117.426.254,0,.188-.193.294-.553.294a1.291,1.291,0,0,1-.806-.254l-.249.41a1.749,1.749,0,0,0,1.05.315c.7,0,1.106-.33,1.106-.791,0-.426-.319-.649-.847-.725l-.249-.036c-.228-.03-.411-.076-.411-.238,0-.178.172-.284.462-.284a1.564,1.564,0,0,1,.756.208Zm6.8-.254a.714.714,0,0,0-.639.355V132.6h-.523v2.425h.527v-1.359c0-.4.172-.624.517-.624a.855.855,0,0,1,.33.061l.163-.5a1.125,1.125,0,0,0-.376-.066m-4.5.061h-.862v-.736h-.533v.736h-.492v.482h.492v1.106c0,.563.218.9.842.9a1.237,1.237,0,0,0,.66-.188l-.152-.452a.976.976,0,0,1-.467.137c-.264,0-.35-.163-.35-.406v-1.1h.862ZM14.1,135.02V133.5a.9.9,0,0,0-.954-.964.939.939,0,0,0-.852.431.89.89,0,0,0-.8-.431.8.8,0,0,0-.71.36v-.3H10.25v2.425h.533v-1.344a.567.567,0,0,1,.594-.645c.35,0,.527.228.527.639v1.349h.533v-1.344a.572.572,0,0,1,.593-.645c.36,0,.533.228.533.639v1.349Z" transform="translate(-8.747 -112.166)" fill="#231f20"/><path d="M193.692,98.005v-.354H193.6l-.107.243-.106-.243h-.093v.354h.066v-.267l.1.231h.068l.1-.231v.268Zm-.586,0v-.294h.119v-.06h-.3v.06h.118v.294Z" transform="translate(-164.429 -83.215)" fill="#f79410"/><path d="M80.994,27.531H73V13.171h7.99Z" transform="translate(-62.229 -11.217)" fill="#ff5f00"/><path d="M11.363,9.081A9.117,9.117,0,0,1,14.851,1.9a9.133,9.133,0,1,0,0,14.36,9.117,9.117,0,0,1-3.488-7.18" transform="translate(-0.076 0.052)" fill="#eb001b"/><path d="M114.791,9.081a9.132,9.132,0,0,1-14.776,7.18,9.133,9.133,0,0,0,0-14.36,9.132,9.132,0,0,1,14.776,7.18" transform="translate(-85.248 0.052)" fill="#f79e1b"/></g></g></svg>