<svg xmlns="http://www.w3.org/2000/svg" width="59" height="34" viewBox="0 0 59 34"><g transform="translate(-1307 -3361)"><rect width="59" height="34" rx="4" transform="translate(1307 3361)" fill="#fff"/><g transform="translate(1317 3373)"><path d="M40.436,6.749h-3.1a.43.43,0,0,0-.425.363L35.663,15.05a.258.258,0,0,0,.215.295.242.242,0,0,0,.04,0H37.4a.43.43,0,0,0,.425-.363l.338-2.141a.43.43,0,0,1,.425-.363h.98a3.179,3.179,0,0,0,3.523-2.942,2.384,2.384,0,0,0-.395-2A2.872,2.872,0,0,0,40.436,6.749Zm.357,2.9c-.169,1.111-1.018,1.111-1.839,1.111h-.467l.328-2.074a.258.258,0,0,1,.255-.218h.214c.559,0,1.086,0,1.359.319A1.032,1.032,0,0,1,40.793,9.648Zm8.9-.036H48.207a.258.258,0,0,0-.255.218l-.066.415-.1-.15a2.11,2.11,0,0,0-1.751-.621,3.409,3.409,0,0,0-3.31,2.981,2.8,2.8,0,0,0,.552,2.277,2.319,2.319,0,0,0,1.867.754,2.836,2.836,0,0,0,2.052-.849l-.066.412a.258.258,0,0,0,.214.3.238.238,0,0,0,.04,0h1.335a.43.43,0,0,0,.425-.363l.8-5.074a.257.257,0,0,0-.213-.295A.247.247,0,0,0,49.689,9.612ZM47.623,12.5a1.652,1.652,0,0,1-1.672,1.415,1.148,1.148,0,0,1-1.228-1.441,1.659,1.659,0,0,1,1.661-1.427,1.251,1.251,0,0,1,.989.4A1.283,1.283,0,0,1,47.623,12.5Zm9.961-2.885h-1.49a.432.432,0,0,0-.356.189l-2.055,3.026-.871-2.908a.431.431,0,0,0-.413-.307H50.936a.258.258,0,0,0-.259.257.265.265,0,0,0,.014.084l1.641,4.815-1.543,2.178a.258.258,0,0,0,.21.407h1.488a.43.43,0,0,0,.354-.185L57.8,10.017a.258.258,0,0,0-.212-.405Z" transform="translate(-35.66 -6.749)" fill="#253b80"/><path d="M89.217,6.748h-3.1a.43.43,0,0,0-.425.363l-1.252,7.938a.258.258,0,0,0,.214.295.238.238,0,0,0,.04,0h1.589a.3.3,0,0,0,.3-.254l.355-2.25a.43.43,0,0,1,.425-.363h.98a3.18,3.18,0,0,0,3.524-2.942,2.383,2.383,0,0,0-.4-2A2.869,2.869,0,0,0,89.217,6.748Zm.357,2.9c-.169,1.111-1.018,1.111-1.839,1.111h-.467L87.6,8.684a.257.257,0,0,1,.254-.218h.214c.559,0,1.086,0,1.359.319A1.032,1.032,0,0,1,89.574,9.648Zm8.9-.036H96.988a.257.257,0,0,0-.254.218l-.066.415-.1-.15a2.109,2.109,0,0,0-1.75-.621A3.408,3.408,0,0,0,91.5,12.453a2.8,2.8,0,0,0,.552,2.277,2.321,2.321,0,0,0,1.867.754,2.836,2.836,0,0,0,2.052-.849l-.066.412a.258.258,0,0,0,.214.3.249.249,0,0,0,.041,0H97.5a.43.43,0,0,0,.425-.363l.8-5.074a.258.258,0,0,0-.216-.295A.237.237,0,0,0,98.47,9.612ZM96.4,12.5a1.651,1.651,0,0,1-1.672,1.415A1.148,1.148,0,0,1,93.5,12.471a1.66,1.66,0,0,1,1.661-1.427,1.251,1.251,0,0,1,.989.4A1.277,1.277,0,0,1,96.4,12.5Zm3.814-5.531-1.271,8.083a.258.258,0,0,0,.214.295.238.238,0,0,0,.04,0h1.277a.429.429,0,0,0,.425-.363l1.253-7.937a.258.258,0,0,0-.215-.3.236.236,0,0,0-.04,0h-1.43A.259.259,0,0,0,100.217,6.966Z" transform="translate(-62.361 -6.748)" fill="#179bd7"/></g></g></svg>