<svg xmlns="http://www.w3.org/2000/svg" width="97.315" height="136.283" viewBox="0 0 97.315 136.283"><g transform="translate(0 9.187)"><path d="M796.654,830.541a10.936,10.936,0,0,1-13.758,3.486l-8.753-4.313a3.632,3.632,0,0,0-4.668,1.307l-15.82,24.855a3.628,3.628,0,0,0,1.107,5.009c.054.035.108.067.163.1,5.115,2.894,15.683,7.792,27.318,6.844,16.331-1.331,26.963-16.515,44.948-44.775s27.239-44.319,21.53-59.679c-4.068-10.943-12.98-18.439-17.768-21.851a3.627,3.627,0,0,0-5.058.854q-.055.078-.107.159l-15.819,24.856a3.632,3.632,0,0,0,.792,4.782l7.614,6.1a10.937,10.937,0,0,1,2.669,13.94Z" transform="translate(-753.086 -740.851)" fill="#8571de"/><path d="M813.082,777.31l-6.409-5.136a3.632,3.632,0,0,1-.793-4.782l8.364-13.14,7.556-11.841a3.62,3.62,0,0,1,5.037-.91l.031.023a59.147,59.147,0,0,1,5.948,4.866Z" transform="translate(-748.996 -740.851)" fill="#9e8dff"/><path d="M761.849,857.883a59.237,59.237,0,0,1-6.923-3.327,3.616,3.616,0,0,1-1.358-4.932l.006-.013,16.256-25.475a3.624,3.624,0,0,1,4.313-.851l7.44,3.666Z" transform="translate(-753.085 -734.425)" fill="#9e8dff"/></g><g transform="translate(51.206)"><path d="M806.266,738.739a1.155,1.155,0,0,1-.915-.447l-8.107-10.423a1.158,1.158,0,0,1,1.828-1.422l8.107,10.423a1.158,1.158,0,0,1-.913,1.869Z" transform="translate(-797 -726)" fill="#ada5e3"/></g><g transform="translate(39.891 8.347)"><path d="M800.154,746.29a1.151,1.151,0,0,1-.565-.148l-15.257-8.558a1.158,1.158,0,0,1,1.133-2.021l15.256,8.559a1.158,1.158,0,0,1-.567,2.168Z" transform="translate(-783.74 -735.415)" fill="#ada5e3"/></g><g transform="translate(37.389 21.845)"><path d="M796.329,755.36a1.087,1.087,0,0,1-.123-.006l-14.67-1.544a1.158,1.158,0,1,1,.242-2.3l14.67,1.544a1.158,1.158,0,0,1-.12,2.31Z" transform="translate(-780.5 -751.5)" fill="#ada5e3"/></g></svg>