<svg xmlns="http://www.w3.org/2000/svg" width="21.102" height="18.261" viewBox="0 0 21.102 18.261"><path d="M21.267,10.542q-.14,3.081-4.3,8.44-4.3,5.6-7.282,5.6-1.844,0-3.121-3.409-.851-3.124-1.7-6.247-.946-3.407-2.033-3.409a6.53,6.53,0,0,0-1.657.995l-.992-1.28Q1.737,9.857,3.255,8.481a6.987,6.987,0,0,1,3.128-1.9q2.463-.236,3.033,3.369.615,3.892.852,4.839.71,3.228,1.563,3.227.664,0,1.991-2.094a8.261,8.261,0,0,0,1.421-3.187q.189-1.807-1.421-1.809a3.93,3.93,0,0,0-1.562.346q1.555-5.1,5.943-4.955,3.252.1,3.065,4.221" transform="translate(-0.176 -6.317)" fill="#ff5f9c"/></svg>