<svg xmlns="http://www.w3.org/2000/svg" width="59" height="34" viewBox="0 0 59 34"><g transform="translate(-1398 -3361)"><rect width="59" height="34" rx="4" transform="translate(1398 3361)" fill="#fff"/><g transform="translate(1409 3372)"><path d="M355.333,17.249h-2.992l1.871-11.57H357.2Z" transform="translate(-339.33 -5.469)" fill="#00579f"/><path d="M492.987.493A7.372,7.372,0,0,0,490.3,0c-2.954,0-5.035,1.575-5.047,3.828-.025,1.662,1.49,2.585,2.622,3.139,1.157.566,1.551.936,1.551,1.44-.012.775-.935,1.132-1.8,1.132a5.954,5.954,0,0,1-2.807-.615l-.394-.185-.419,2.6a9.1,9.1,0,0,0,3.336.616c3.139,0,5.183-1.551,5.207-3.951.012-1.317-.788-2.326-2.511-3.151-1.046-.529-1.687-.886-1.687-1.428.012-.492.542-1,1.723-1a5.083,5.083,0,0,1,2.228.443l.271.123.407-2.5Z" transform="translate(-466.139)" fill="#00579f"/><path d="M713.985,13.15c.246-.665,1.194-3.237,1.194-3.237-.012.025.246-.677.394-1.108l.209,1s.567,2.769.69,3.348Zm3.693-7.471h-2.314a1.476,1.476,0,0,0-1.564.96l-4.444,10.61H712.5l.628-1.736h3.841c.086.406.357,1.736.357,1.736h2.77l-2.414-11.57Z" transform="translate(-683.161 -5.469)" fill="#00579f"/><path d="M92.056,5.679l-2.93,7.89-.32-1.6a8.856,8.856,0,0,0-4.136-4.85l2.684,10.118h3.164l4.7-11.558Z" transform="translate(-81.543 -5.469)" fill="#00579f"/><path d="M4.862,5.679H.049L0,5.913a10.01,10.01,0,0,1,7.263,6.056L6.217,6.652a1.238,1.238,0,0,0-1.354-.973Z" transform="translate(0 -5.469)" fill="#faa61a"/></g></g></svg>